<?xml version="1.0" encoding="UTF-8"?>
<svg id="Layer_2" data-name="Layer 2" xmlns="http://www.w3.org/2000/svg" viewBox="0 0 70.87 70.87">
  <defs>
    <style>
      .cls-1 {
        fill: #fff;
      }

      .cls-1, .cls-2 {
        fill-rule: evenodd;
      }

      .cls-2 {
        fill: #f58220;
      }
    </style>
  </defs>
  <g id="Layer_1" data-name="Layer 1">
    <g>
      <path class="cls-2" d="M35.25,0c19.57-.1,35.51,15.68,35.61,35.25.1,19.57-15.68,35.51-35.25,35.61C16.05,70.97.1,55.18,0,35.62-.1,16.05,15.68.1,35.25,0"/>
      <path class="cls-1" d="M10.97,61.06c-3.17-3.03-5.78-6.64-7.66-10.66l28.97-.15h1.5c8.42-.05,13.53-5.21,13.48-14.99-.05-9.7-5.43-14.67-13.63-14.63l-3.07.02.07,13.2-6.36,3.72-6.4-3.65-.05-9.84-.02-3.36-.06-10.7,16.34-.08c16.05-.08,26.37,9.21,26.45,25.26.08,16.05-10.14,25.66-26.19,25.74h-2s-21.36.12-21.36.12Z"/>
    </g>
  </g>
</svg>